REM DIRINDEX 1\6,1\2\7,1\2\8,1\2\9,1\3\10,1\3\11,1\4\12,1\4\13,1\4\14,1\5\15,1\5\16,1\5\17
REM DIRNAME folder01,folder02,folder03,folder04,folder05,folder06,folder07,folder08,folder09,folder10,folder11,folder12,folder13,folder14,folder15,folder16,folder17
TITLE ""
FILE "P2Q_j_1226-1239.mp3" MP3
  TRACK 01 AUDIO
    TITLE "12:cjc040_0422"
    INDEX 01 00:00:00
  TRACK 02 AUDIO
    TITLE "0:"
    INDEX 01 00:01:22
  TRACK 03 AUDIO
    TITLE "13:cjc040_0423"
    INDEX 01 00:02:06
  TRACK 04 AUDIO
    TITLE "0:"
    INDEX 01 00:03:49
  TRACK 05 AUDIO
    TITLE "14:cjc040_0424"
    INDEX 01 00:04:21
  TRACK 06 AUDIO
    TITLE "0:"
    INDEX 01 00:08:34
  TRACK 07 AUDIO
    TITLE "12:cjc040_0425"
    INDEX 01 00:09:18
  TRACK 08 AUDIO
    TITLE "0:"
    INDEX 01 00:11:03
  TRACK 09 AUDIO
    TITLE "13:cjc040_0426"
    INDEX 01 00:11:58
  TRACK 10 AUDIO
    TITLE "0:"
    INDEX 01 00:13:12
  TRACK 11 AUDIO
    TITLE "14:cjc040_0427"
    INDEX 01 00:13:61
  TRACK 12 AUDIO
    TITLE "0:"
    INDEX 01 00:18:33
  TRACK 13 AUDIO
    TITLE "12:cjc040_0428"
    INDEX 01 00:19:13
  TRACK 14 AUDIO
    TITLE "0:"
    INDEX 01 00:20:43
  TRACK 15 AUDIO
    TITLE "13:cjc040_0429"
    INDEX 01 00:21:21
  TRACK 16 AUDIO
    TITLE "0:"
    INDEX 01 00:22:66
  TRACK 17 AUDIO
    TITLE "14:cjc040_0430"
    INDEX 01 00:23:46
  TRACK 18 AUDIO
    TITLE "0:"
    INDEX 01 00:28:55
  TRACK 19 AUDIO
    TITLE "12:cjc040_0431"
    INDEX 01 00:29:31
  TRACK 20 AUDIO
    TITLE "0:"
    INDEX 01 00:31:12
  TRACK 21 AUDIO
    TITLE "13:cjc040_0432"
    INDEX 01 00:31:69
  TRACK 22 AUDIO
    TITLE "0:"
    INDEX 01 00:33:09
  TRACK 23 AUDIO
    TITLE "14:cjc040_0433"
    INDEX 01 00:33:60
  TRACK 24 AUDIO
    TITLE "0:"
    INDEX 01 00:37:54
  TRACK 25 AUDIO
    TITLE "12:cjc040_0434"
    INDEX 01 00:38:31
  TRACK 26 AUDIO
    TITLE "0:"
    INDEX 01 00:39:54
  TRACK 27 AUDIO
    TITLE "13:cjc040_0435"
    INDEX 01 00:40:36
  TRACK 28 AUDIO
    TITLE "0:"
    INDEX 01 00:42:51
  TRACK 29 AUDIO
    TITLE "14:cjc040_0436"
    INDEX 01 00:43:31
  TRACK 30 AUDIO
    TITLE "0:"
    INDEX 01 00:48:69
  TRACK 31 AUDIO
    TITLE "12:cjc040_0437"
    INDEX 01 00:49:53
  TRACK 32 AUDIO
    TITLE "0:"
    INDEX 01 00:51:16
  TRACK 33 AUDIO
    TITLE "13:cjc040_0438"
    INDEX 01 00:52:00
  TRACK 34 AUDIO
    TITLE "0:"
    INDEX 01 00:54:30
  TRACK 35 AUDIO
    TITLE "14:cjc040_0439"
    INDEX 01 00:55:06
  TRACK 36 AUDIO
    TITLE "0:"
    INDEX 01 00:59:12
  TRACK 37 AUDIO
    TITLE "12:cjc040_0440"
    INDEX 01 00:59:71
  TRACK 38 AUDIO
    TITLE "0:"
    INDEX 01 01:01:03
  TRACK 39 AUDIO
    TITLE "13:cjc040_0441"
    INDEX 01 01:01:68
  TRACK 40 AUDIO
    TITLE "0:"
    INDEX 01 01:05:60
  TRACK 41 AUDIO
    TITLE "14:cjc040_0442"
    INDEX 01 01:06:38
  TRACK 42 AUDIO
    TITLE "0:"
    INDEX 01 01:11:03
  TRACK 43 AUDIO
    TITLE "12:cjc040_0443"
    INDEX 01 01:11:62
  TRACK 44 AUDIO
    TITLE "0:"
    INDEX 01 01:14:37
  TRACK 45 AUDIO
    TITLE "13:cjc040_0444"
    INDEX 01 01:15:11
  TRACK 46 AUDIO
    TITLE "0:"
    INDEX 01 01:18:07
  TRACK 47 AUDIO
    TITLE "14:cjc040_0445"
    INDEX 01 01:18:58
  TRACK 48 AUDIO
    TITLE "0:"
    INDEX 01 01:23:42
  TRACK 49 AUDIO
    TITLE "12:cjc040_0446"
    INDEX 01 01:24:20
  TRACK 50 AUDIO
    TITLE "0:"
    INDEX 01 01:25:64
  TRACK 51 AUDIO
    TITLE "13:cjc040_0447"
    INDEX 01 01:26:46
  TRACK 52 AUDIO
    TITLE "0:"
    INDEX 01 01:28:27
  TRACK 53 AUDIO
    TITLE "14:cjc040_0448"
    INDEX 01 01:29:01
  TRACK 54 AUDIO
    TITLE "0:"
    INDEX 01 01:32:70
  TRACK 55 AUDIO
    TITLE "12:cjc040_0449"
    INDEX 01 01:33:56
  TRACK 56 AUDIO
    TITLE "0:"
    INDEX 01 01:35:06
  TRACK 57 AUDIO
    TITLE "13:cjc040_0450"
    INDEX 01 01:35:67
  TRACK 58 AUDIO
    TITLE "0:"
    INDEX 01 01:37:54
  TRACK 59 AUDIO
    TITLE "14:cjc040_0451"
    INDEX 01 01:38:26
  TRACK 60 AUDIO
    TITLE "0:"
    INDEX 01 01:43:13
  TRACK 61 AUDIO
    TITLE "12:cjc040_0452"
    INDEX 01 01:43:70
  TRACK 62 AUDIO
    TITLE "0:"
    INDEX 01 01:46:18
  TRACK 63 AUDIO
    TITLE "13:cjc040_0453"
    INDEX 01 01:46:74
  TRACK 64 AUDIO
    TITLE "0:"
    INDEX 01 01:48:69
  TRACK 65 AUDIO
    TITLE "14:cjc040_0454"
    INDEX 01 01:49:49
  TRACK 66 AUDIO
    TITLE "0:"
    INDEX 01 01:55:36
  TRACK 67 AUDIO
    TITLE "12:cjc040_0455"
    INDEX 01 01:56:16
  TRACK 68 AUDIO
    TITLE "0:"
    INDEX 01 01:58:46
  TRACK 69 AUDIO
    TITLE "13:cjc040_0456"
    INDEX 01 01:59:26
  TRACK 70 AUDIO
    TITLE "0:"
    INDEX 01 02:01:43
  TRACK 71 AUDIO
    TITLE "14:cjc040_0457"
    INDEX 01 02:02:24
  TRACK 72 AUDIO
    TITLE "0:"
    INDEX 01 02:08:37
  TRACK 73 AUDIO
    TITLE "12:cjc040_0458"
    INDEX 01 02:09:19
  TRACK 74 AUDIO
    TITLE "0:"
    INDEX 01 02:11:06
  TRACK 75 AUDIO
    TITLE "13:cjc040_0459"
    INDEX 01 02:11:61
  TRACK 76 AUDIO
    TITLE "0:"
    INDEX 01 02:13:34
  TRACK 77 AUDIO
    TITLE "14:cjc040_0460"
    INDEX 01 02:14:14
  TRACK 78 AUDIO
    TITLE "0:"
    INDEX 01 02:17:44
  TRACK 79 AUDIO
    TITLE "12:cjc040_0461"
    INDEX 01 02:18:23
  TRACK 80 AUDIO
    TITLE "0:"
    INDEX 01 02:20:18
  TRACK 81 AUDIO
    TITLE "13:cjc040_0462"
    INDEX 01 02:21:00
  TRACK 82 AUDIO
    TITLE "0:"
    INDEX 01 02:22:49
  TRACK 83 AUDIO
    TITLE "14:cjc040_0463"
    INDEX 01 02:23:30
  TRACK 84 AUDIO
    TITLE "0:"
    INDEX 01 02:29:33
